<?xml version="1.0" encoding="iso-8859-1"?>
<!-- Uploaded to: SVG Repo, www.svgrepo.com, Generator: SVG Repo Mixer Tools -->
<svg height="800px" width="800px" version="1.1" id="Layer_1" xmlns="http://www.w3.org/2000/svg" xmlns:xlink="http://www.w3.org/1999/xlink" 
	 viewBox="0 0 512 512" xml:space="preserve">
<g>
	<g>
		<path style="fill:#38454F;" d="M322.207,264.828c41.428-5.288,69.438-22.51,88.276-35.31
			c14.495,9.852,34.498,22.263,61.793,29.899v-56.655c0-9.604-7.777-17.382-17.382-17.382H30.623
			c-9.604,0-17.382,7.777-17.382,17.382v106.478c0,9.596,7.777,17.382,17.382,17.382h291.584V264.828z"/>
		<path style="fill:#38454F;" d="M454.895,141.241H30.624c-9.604,0-17.382-7.786-17.382-17.382V17.382
			C13.242,7.786,21.019,0,30.624,0h424.271c9.596,0,17.382,7.786,17.382,17.382V123.86
			C472.277,133.455,464.491,141.241,454.895,141.241"/>
	</g>
	<g>
		<path style="fill:#88C057;" d="M286.897,282.483c0,4.873-3.955,8.828-8.828,8.828s-8.828-3.955-8.828-8.828
			c0-4.873,3.955-8.828,8.828-8.828S286.897,277.61,286.897,282.483"/>
		<path style="fill:#88C057;" d="M216.276,282.483c0,4.873-3.955,8.828-8.828,8.828c-4.873,0-8.828-3.955-8.828-8.828
			c0-4.873,3.955-8.828,8.828-8.828C212.321,273.655,216.276,277.61,216.276,282.483"/>
		<path style="fill:#88C057;" d="M251.586,282.483c0,4.873-3.955,8.828-8.828,8.828s-8.828-3.955-8.828-8.828
			c0-4.873,3.955-8.828,8.828-8.828S251.586,277.61,251.586,282.483"/>
		<path style="fill:#88C057;" d="M233.931,256c0,4.873-3.955,8.828-8.828,8.828c-4.873,0-8.828-3.955-8.828-8.828
			s3.955-8.828,8.828-8.828C229.976,247.172,233.931,251.127,233.931,256"/>
		<path style="fill:#88C057;" d="M269.241,256c0,4.873-3.955,8.828-8.828,8.828c-4.873,0-8.828-3.955-8.828-8.828
			s3.955-8.828,8.828-8.828C265.287,247.172,269.241,251.127,269.241,256"/>
	</g>
	<path style="fill:#F0C419;" d="M278.069,238.345h-70.621c-4.873,0-8.828-3.955-8.828-8.828s3.955-8.828,8.828-8.828h70.621
		c4.873,0,8.828,3.955,8.828,8.828S282.942,238.345,278.069,238.345"/>
	<polygon style="fill:#D75A4A;" points="57.379,282.483 154.483,282.483 154.483,229.517 57.379,229.517 	"/>
	<polygon style="fill:#1E272D;" points="30.897,185.379 454.621,185.379 454.621,141.241 30.897,141.241 	"/>
	<path style="fill:#F0C419;" d="M410.483,476.69c-11.9-4.67-24.382-9.066-35.31-17.655c-34.648-27.233-52.966-68.22-52.966-114.759
		v-79.448c41.428-5.288,69.438-22.51,88.276-35.31c18.838,12.8,46.848,30.023,88.276,35.31v79.448
		c0,46.539-18.326,87.526-52.966,114.759C434.856,467.624,422.382,472.02,410.483,476.69"/>
	<path style="fill:#FFFFFF;" d="M366.345,379.586c-4.873,0-8.828-3.955-8.828-8.828v-61.793c0-3.346,1.889-6.4,4.882-7.901
		l35.31-17.655c4.378-2.18,9.666-0.406,11.847,3.955c2.18,4.361,0.406,9.657-3.955,11.847l-30.429,15.21v56.338
		C375.172,375.631,371.218,379.586,366.345,379.586"/>
	<path style="fill:#1E272D;" d="M322.207,344.276v-17.655H30.897v44.138h293.597C323.116,362.152,322.207,353.359,322.207,344.276"
		/>
	<path style="fill:#38454F;" d="M445.793,459.034c-10.937,8.589-23.411,12.985-35.31,17.655c-11.9-4.67-24.382-9.066-35.31-17.655
		c-27.886-21.91-44.985-52.824-50.679-88.276H30.623c-9.604,0-17.382,7.777-17.382,17.382v106.478
		c0,9.596,7.777,17.382,17.382,17.382h424.271c9.604,0,17.382-7.786,17.382-17.382v-63.647
		C464.887,441.37,456.165,450.887,445.793,459.034"/>
</g>
</svg>